<svg width="924" height="200" viewBox="0 0 924 200" fill="none" xmlns="http://www.w3.org/2000/svg">
<path d="M31.665 164V40C31.665 36.3181 34.6498 33.3334 38.3317 33.3334H81.1317C110.252 33.3334 129.852 50.88 129.852 77.0134V78.5067C129.852 105.2 110.252 122.747 81.1317 122.747H60.785V157.333C60.785 161.015 57.8003 164 54.1184 164H31.665ZM59.8517 99.7867H78.5184C92.5184 99.7867 100.732 91.0134 100.732 79.0667V77.76C100.732 66 93.0784 58.3467 79.265 58.3467H59.8517V99.7867Z" fill="white"/>
<path d="M283.147 164C283.147 121.2 304.833 77.3239 336.966 35.8851C338.218 34.2706 340.153 33.3334 342.196 33.3334H369.387L402.398 155.596C403.542 159.833 400.351 164 395.962 164H374.054L367.147 136.747H316.561C315.006 143.531 313.879 150.421 313.424 157.338C313.182 161.012 310.216 164 306.534 164H283.147ZM323.094 112.667H361.174L349.414 64.6934H346.987C338.587 78.5067 329.441 96.8 323.094 112.667Z" fill="white"/>
<path d="M422.134 164V40C422.134 36.3181 425.118 33.3334 428.8 33.3334H471.6C500.72 33.3334 520.32 50.88 520.32 77.0134V78.5067C520.32 105.2 500.72 122.747 471.6 122.747H451.254V157.333C451.254 161.015 448.269 164 444.587 164H422.134ZM450.32 99.7867H468.987C482.987 99.7867 491.2 91.0134 491.2 79.0667V77.76C491.2 66 483.547 58.3467 469.734 58.3467H450.32V99.7867Z" fill="white"/>
<path d="M538.983 164V40C538.983 36.3181 541.967 33.3334 545.649 33.3334H621.676V52.0534C621.676 55.7353 618.691 58.72 615.009 58.72H568.103V86.3467H617.943V103.76C617.943 107.442 614.958 110.427 611.276 110.427H568.103V138.613H623.543V157.333C623.543 161.015 620.558 164 616.876 164H538.983Z" fill="white"/>
<path d="M647.628 164V40C647.628 36.3181 650.613 33.3334 654.295 33.3334H692.428C733.308 33.3334 760.935 59.28 760.935 96.4267V99.7867C760.935 137.307 733.495 164 692.428 164H647.628ZM676.748 138.613H692.988C716.508 138.613 730.695 122.56 730.695 99.6V96.6134C730.695 73.84 716.508 58.72 692.988 58.72H676.748V138.613Z" fill="white"/>
<path d="M835.537 166.427C801.564 166.427 780.657 147.013 780.657 114.347V40C780.657 36.3181 783.642 33.3334 787.324 33.3334H809.777V112.853C809.777 129.653 819.671 139.92 835.724 139.92C851.404 139.92 861.111 129.653 861.111 112.853V33.3334H890.231V114.347C890.231 147.947 868.204 166.427 835.537 166.427Z" fill="white"/>
<path fill-rule="evenodd" clip-rule="evenodd" d="M208.96 164C244.858 164 273.96 134.898 273.96 98.9999C273.96 63.1014 244.858 33.9999 208.96 33.9999C173.061 33.9999 143.96 63.1014 143.96 98.9999C143.96 134.898 173.061 164 208.96 164ZM208.96 137.333C230.131 137.333 247.293 120.171 247.293 98.9999C247.293 93.2725 246.037 87.8384 243.785 82.9582C247.821 81.1226 250.627 77.0555 250.627 72.3332C250.627 65.8899 245.403 60.6665 238.96 60.6665C234.725 60.6665 231.017 62.9229 228.973 66.2991C223.148 62.7264 216.294 60.6665 208.96 60.6665C202.603 60.6665 196.607 62.214 191.329 64.9527C189.19 62.3365 185.936 60.6665 182.293 60.6665C175.85 60.6665 170.627 65.8899 170.627 72.3332C170.627 75.9764 172.297 79.2296 174.913 81.3691C172.174 86.6472 170.627 92.6428 170.627 98.9999C170.627 120.171 187.789 137.333 208.96 137.333Z" fill="white"/>
<path d="M187.293 72.3332C187.293 75.0946 185.055 77.3332 182.293 77.3332C179.532 77.3332 177.293 75.0946 177.293 72.3332C177.293 69.5718 179.532 67.3332 182.293 67.3332C185.055 67.3332 187.293 69.5718 187.293 72.3332Z" fill="white"/>
<path d="M243.96 72.3332C243.96 75.0946 241.721 77.3332 238.96 77.3332C236.198 77.3332 233.96 75.0946 233.96 72.3332C233.96 69.5718 236.198 67.3332 238.96 67.3332C241.721 67.3332 243.96 69.5718 243.96 72.3332Z" fill="white"/>
<path d="M218.172 87.3332C219.495 87.3332 220.597 88.427 220.329 89.7221C220.232 90.1959 220.105 90.6456 219.949 91.0714C219.572 92.1604 219.017 93.0818 218.284 93.8357C217.551 94.5687 216.672 95.1341 215.646 95.532C214.64 95.909 213.499 96.0975 212.222 96.0975C211.028 96.0975 209.928 95.909 208.923 95.532C207.918 95.1341 207.049 94.5687 206.316 93.8357C205.583 93.0818 205.007 92.1604 204.588 91.0714C204.435 90.6524 204.31 90.2101 204.213 89.7446C203.939 88.4377 205.053 87.3332 206.388 87.3332C207.691 87.3332 208.697 88.3924 208.994 89.6611C209.03 89.8124 209.069 89.9578 209.112 90.0976C209.363 90.8305 209.75 91.3855 210.274 91.7625C210.798 92.1394 211.468 92.3279 212.284 92.3279C213.101 92.3279 213.761 92.1394 214.263 91.7625C214.787 91.3855 215.174 90.8305 215.426 90.0976C215.47 89.9646 215.51 89.8264 215.547 89.683C215.87 88.4147 216.864 87.3332 218.172 87.3332Z" fill="white"/>
<path d="M230.093 87.3332C231.416 87.3332 232.518 88.427 232.25 89.7221C232.152 90.1959 232.026 90.6456 231.87 91.0714C231.493 92.1604 230.938 93.0818 230.205 93.8357C229.472 94.5687 228.593 95.1341 227.566 95.532C226.561 95.909 225.42 96.0975 224.142 96.0975C222.949 96.0975 221.849 95.909 220.844 95.532C219.839 95.1341 218.97 94.5687 218.237 93.8357C217.504 93.0818 216.928 92.1604 216.509 91.0714C216.356 90.6524 216.231 90.2101 216.133 89.7446C215.86 88.4377 216.974 87.3332 218.309 87.3332C219.612 87.3332 220.617 88.3924 220.915 89.6611C220.951 89.8124 220.99 89.9578 221.033 90.0976C221.284 90.8305 221.671 91.3855 222.195 91.7625C222.718 92.1394 223.389 92.3279 224.205 92.3279C225.022 92.3279 225.682 92.1394 226.184 91.7625C226.708 91.3855 227.095 90.8305 227.347 90.0976C227.391 89.9646 227.431 89.8264 227.468 89.683C227.791 88.4148 228.784 87.3332 230.093 87.3332Z" fill="white"/>
</svg>
