<svg width="201" height="200" viewBox="0 0 201 200" fill="none" xmlns="http://www.w3.org/2000/svg">
<path fill-rule="evenodd" clip-rule="evenodd" d="M102.334 180C145.597 180 180.668 144.929 180.668 101.667C180.668 58.4048 145.597 23.3337 102.334 23.3337C59.072 23.3337 24.001 58.4048 24.001 101.667C24.001 144.929 59.072 180 102.334 180ZM102.334 147.864C127.848 147.864 148.531 127.181 148.531 101.667C148.531 94.7648 147.017 88.2161 144.304 82.3348C149.167 80.1226 152.548 75.2213 152.548 69.5303C152.548 61.7653 146.253 55.4705 138.488 55.4705C133.385 55.4705 128.916 58.1897 126.453 62.2584C119.432 57.9528 111.173 55.4705 102.334 55.4705C94.6732 55.4705 87.4477 57.3353 81.0869 60.6359C78.5086 57.483 74.5881 55.4705 70.1975 55.4705C62.4325 55.4705 56.1377 61.7653 56.1377 69.5303C56.1377 73.9209 58.1502 77.8414 61.3031 80.4197C58.0026 86.7805 56.1377 94.006 56.1377 101.667C56.1377 127.181 76.8206 147.864 102.334 147.864Z" fill="#403A32"/>
<path d="M76.2232 69.5303C76.2232 72.8582 73.5254 75.5559 70.1975 75.5559C66.8697 75.5559 64.1719 72.8582 64.1719 69.5303C64.1719 66.2024 66.8697 63.5047 70.1975 63.5047C73.5254 63.5047 76.2232 66.2024 76.2232 69.5303Z" fill="#403A32"/>
<path d="M144.514 69.5303C144.514 72.8582 141.816 75.5559 138.488 75.5559C135.16 75.5559 132.462 72.8582 132.462 69.5303C132.462 66.2024 135.16 63.5047 138.488 63.5047C141.816 63.5047 144.514 66.2024 144.514 69.5303Z" fill="#403A32"/>
<path d="M113.436 87.6072C115.03 87.6072 116.359 88.9254 116.036 90.4862C115.918 91.0571 115.765 91.5991 115.578 92.1122C115.124 93.4246 114.455 94.535 113.571 95.4436C112.688 96.3269 111.628 97.0084 110.391 97.4879C109.18 97.9422 107.805 98.1693 106.265 98.1693C104.826 98.1693 103.501 97.9422 102.29 97.4879C101.079 97.0084 100.031 96.3269 99.1479 95.4436C98.2646 94.535 97.5705 93.4246 97.0658 92.1122C96.8813 91.6072 96.7304 91.0742 96.6131 90.5132C96.284 88.9382 97.6259 87.6072 99.2349 87.6072C100.805 87.6072 102.017 88.8837 102.376 90.4127C102.419 90.5949 102.466 90.7703 102.517 90.9386C102.82 91.822 103.287 92.4908 103.918 92.9451C104.549 93.3993 105.356 93.6265 106.341 93.6265C107.325 93.6265 108.12 93.3993 108.726 92.9451C109.357 92.4908 109.824 91.822 110.126 90.9386C110.18 90.7784 110.229 90.6118 110.273 90.439C110.662 88.9106 111.859 87.6072 113.436 87.6072Z" fill="#403A32"/>
<path d="M127.803 87.6072C129.396 87.6072 130.725 88.9254 130.402 90.4862C130.284 91.0571 130.131 91.5991 129.944 92.1122C129.49 93.4246 128.821 94.535 127.938 95.4436C127.054 96.3269 125.994 97.0084 124.758 97.4879C123.546 97.9422 122.171 98.1693 120.631 98.1693C119.193 98.1693 117.868 97.9422 116.656 97.4879C115.445 97.0084 114.397 96.3269 113.514 95.4436C112.631 94.535 111.937 93.4246 111.432 92.1122C111.247 91.6072 111.097 91.0742 110.979 90.5132C110.65 88.9382 111.992 87.6072 113.601 87.6072C115.172 87.6072 116.383 88.8837 116.742 90.4127C116.785 90.5949 116.832 90.7703 116.883 90.9386C117.186 91.822 117.653 92.4908 118.284 92.9451C118.915 93.3993 119.723 93.6265 120.707 93.6265C121.691 93.6265 122.486 93.3993 123.092 92.9451C123.723 92.4908 124.19 91.822 124.493 90.9386C124.546 90.7784 124.595 90.6118 124.639 90.439C125.028 88.9106 126.225 87.6072 127.803 87.6072Z" fill="#403A32"/>
</svg>
