<svg width="924" height="200" viewBox="0 0 924 200" fill="none" xmlns="http://www.w3.org/2000/svg">
<path d="M31.667 164V40C31.667 36.3181 34.6518 33.3334 38.3337 33.3334H81.1336C110.254 33.3334 129.854 50.88 129.854 77.0134V78.5067C129.854 105.2 110.254 122.747 81.1336 122.747H60.787V157.333C60.787 161.015 57.8022 164 54.1203 164H31.667ZM59.8536 99.7867H78.5203C92.5203 99.7867 100.734 91.0134 100.734 79.0667V77.76C100.734 66 93.0803 58.3467 79.267 58.3467H59.8536V99.7867Z" fill="#403A32"/>
<path d="M283.149 164C283.149 121.2 304.835 77.3239 336.968 35.8851C338.22 34.2706 340.155 33.3334 342.198 33.3334H369.389L402.4 155.596C403.544 159.833 400.353 164 395.964 164H374.056L367.149 136.747H316.563C315.008 143.531 313.881 150.421 313.426 157.338C313.184 161.012 310.218 164 306.536 164H283.149ZM323.096 112.667H361.176L349.416 64.6934H346.989C338.589 78.5067 329.443 96.8 323.096 112.667Z" fill="#403A32"/>
<path d="M422.136 164V40C422.136 36.3181 425.12 33.3334 428.802 33.3334H471.602C500.722 33.3334 520.322 50.88 520.322 77.0134V78.5067C520.322 105.2 500.722 122.747 471.602 122.747H451.256V157.333C451.256 161.015 448.271 164 444.589 164H422.136ZM450.322 99.7867H468.989C482.989 99.7867 491.202 91.0134 491.202 79.0667V77.76C491.202 66 483.549 58.3467 469.736 58.3467H450.322V99.7867Z" fill="#403A32"/>
<path d="M538.985 164V40C538.985 36.3181 541.969 33.3334 545.651 33.3334H621.678V52.0534C621.678 55.7353 618.693 58.72 615.011 58.72H568.105V86.3467H617.944V103.76C617.944 107.442 614.96 110.427 611.278 110.427H568.105V138.613H623.544V157.333C623.544 161.015 620.56 164 616.878 164H538.985Z" fill="#403A32"/>
<path d="M647.63 164V40C647.63 36.3181 650.615 33.3334 654.297 33.3334H692.43C733.31 33.3334 760.937 59.28 760.937 96.4267V99.7867C760.937 137.307 733.497 164 692.43 164H647.63ZM676.75 138.613H692.99C716.51 138.613 730.697 122.56 730.697 99.6V96.6134C730.697 73.84 716.51 58.72 692.99 58.72H676.75V138.613Z" fill="#403A32"/>
<path d="M835.539 166.427C801.566 166.427 780.659 147.013 780.659 114.347V40C780.659 36.3181 783.644 33.3334 787.326 33.3334H809.779V112.853C809.779 129.653 819.673 139.92 835.726 139.92C851.406 139.92 861.113 129.653 861.113 112.853V33.3334H890.233V114.347C890.233 147.947 868.206 166.427 835.539 166.427Z" fill="#403A32"/>
<path fill-rule="evenodd" clip-rule="evenodd" d="M208.962 164C244.86 164 273.962 134.898 273.962 98.9999C273.962 63.1014 244.86 33.9999 208.962 33.9999C173.063 33.9999 143.962 63.1014 143.962 98.9999C143.962 134.898 173.063 164 208.962 164ZM208.962 137.333C230.133 137.333 247.295 120.171 247.295 98.9999C247.295 93.2725 246.039 87.8384 243.787 82.9582C247.823 81.1226 250.628 77.0555 250.628 72.3332C250.628 65.8899 245.405 60.6665 238.962 60.6665C234.727 60.6665 231.019 62.9229 228.975 66.2991C223.15 62.7264 216.296 60.6665 208.962 60.6665C202.605 60.6665 196.609 62.214 191.331 64.9527C189.192 62.3365 185.938 60.6665 182.295 60.6665C175.852 60.6665 170.629 65.8899 170.629 72.3332C170.629 75.9764 172.298 79.2296 174.915 81.3691C172.176 86.6472 170.629 92.6428 170.629 98.9999C170.629 120.171 187.791 137.333 208.962 137.333Z" fill="#403A32"/>
<path d="M187.295 72.3332C187.295 75.0946 185.057 77.3332 182.295 77.3332C179.534 77.3332 177.295 75.0946 177.295 72.3332C177.295 69.5718 179.534 67.3332 182.295 67.3332C185.057 67.3332 187.295 69.5718 187.295 72.3332Z" fill="#403A32"/>
<path d="M243.962 72.3332C243.962 75.0946 241.723 77.3332 238.962 77.3332C236.2 77.3332 233.962 75.0946 233.962 72.3332C233.962 69.5718 236.2 67.3332 238.962 67.3332C241.723 67.3332 243.962 69.5718 243.962 72.3332Z" fill="#403A32"/>
<path d="M218.174 87.3332C219.497 87.3332 220.599 88.427 220.331 89.7221C220.233 90.1959 220.107 90.6456 219.951 91.0714C219.574 92.1604 219.019 93.0818 218.286 93.8357C217.553 94.5687 216.674 95.1341 215.648 95.532C214.642 95.909 213.501 96.0975 212.224 96.0975C211.03 96.0975 209.93 95.909 208.925 95.532C207.92 95.1341 207.051 94.5687 206.318 93.8357C205.585 93.0818 205.009 92.1604 204.59 91.0714C204.437 90.6524 204.312 90.2101 204.215 89.7446C203.941 88.4377 205.055 87.3332 206.39 87.3332C207.693 87.3332 208.698 88.3924 208.996 89.6611C209.032 89.8124 209.071 89.9578 209.114 90.0976C209.365 90.8305 209.752 91.3855 210.276 91.7625C210.799 92.1394 211.47 92.3279 212.286 92.3279C213.103 92.3279 213.763 92.1394 214.265 91.7625C214.789 91.3855 215.176 90.8305 215.428 90.0976C215.472 89.9646 215.512 89.8264 215.549 89.683C215.872 88.4147 216.866 87.3332 218.174 87.3332Z" fill="#403A32"/>
<path d="M230.095 87.3332C231.418 87.3332 232.52 88.427 232.252 89.7221C232.154 90.1959 232.028 90.6456 231.872 91.0714C231.495 92.1604 230.94 93.0818 230.207 93.8357C229.474 94.5687 228.595 95.1341 227.568 95.532C226.563 95.909 225.422 96.0975 224.144 96.0975C222.951 96.0975 221.851 95.909 220.846 95.532C219.841 95.1341 218.972 94.5687 218.239 93.8357C217.506 93.0818 216.93 92.1604 216.511 91.0714C216.358 90.6524 216.233 90.2101 216.135 89.7446C215.862 88.4377 216.976 87.3332 218.311 87.3332C219.614 87.3332 220.619 88.3924 220.917 89.6611C220.953 89.8124 220.992 89.9578 221.034 90.0976C221.286 90.8305 221.673 91.3855 222.197 91.7625C222.72 92.1394 223.39 92.3279 224.207 92.3279C225.024 92.3279 225.684 92.1394 226.186 91.7625C226.71 91.3855 227.097 90.8305 227.349 90.0976C227.393 89.9646 227.433 89.8264 227.47 89.683C227.793 88.4148 228.786 87.3332 230.095 87.3332Z" fill="#403A32"/>
</svg>
