<svg width="200" height="200" viewBox="0 0 200 200" fill="none" xmlns="http://www.w3.org/2000/svg">
<path fill-rule="evenodd" clip-rule="evenodd" d="M101.667 180C144.93 180 180.001 144.929 180.001 101.667C180.001 58.4048 144.93 23.3337 101.667 23.3337C58.405 23.3337 23.334 58.4048 23.334 101.667C23.334 144.929 58.405 180 101.667 180ZM101.667 147.864C127.181 147.864 147.864 127.181 147.864 101.667C147.864 94.7648 146.35 88.2161 143.637 82.3348C148.5 80.1226 151.881 75.2213 151.881 69.5303C151.881 61.7653 145.586 55.4705 137.821 55.4705C132.718 55.4705 128.249 58.1897 125.786 62.2584C118.765 57.9528 110.506 55.4705 101.667 55.4705C94.0062 55.4705 86.7807 57.3353 80.4199 60.6359C77.8416 57.483 73.9211 55.4705 69.5306 55.4705C61.7655 55.4705 55.4707 61.7653 55.4707 69.5303C55.4707 73.9209 57.4832 77.8414 60.6361 80.4197C57.3356 86.7805 55.4707 94.006 55.4707 101.667C55.4707 127.181 76.1536 147.864 101.667 147.864Z" fill="white"/>
<path d="M75.5562 69.5303C75.5562 72.8582 72.8584 75.5559 69.5306 75.5559C66.2027 75.5559 63.5049 72.8582 63.5049 69.5303C63.5049 66.2024 66.2027 63.5047 69.5306 63.5047C72.8584 63.5047 75.5562 66.2024 75.5562 69.5303Z" fill="white"/>
<path d="M143.847 69.5303C143.847 72.8582 141.149 75.5559 137.821 75.5559C134.493 75.5559 131.795 72.8582 131.795 69.5303C131.795 66.2024 134.493 63.5047 137.821 63.5047C141.149 63.5047 143.847 66.2024 143.847 69.5303Z" fill="white"/>
<path d="M112.769 87.6072C114.363 87.6072 115.692 88.9254 115.369 90.4862C115.251 91.0571 115.098 91.5991 114.911 92.1122C114.457 93.4246 113.788 94.535 112.904 95.4436C112.021 96.3269 110.961 97.0084 109.724 97.4879C108.513 97.9422 107.138 98.1693 105.598 98.1693C104.159 98.1693 102.834 97.9422 101.623 97.4879C100.412 97.0084 99.3643 96.3269 98.4809 95.4436C97.5976 94.535 96.9036 93.4246 96.3988 92.1122C96.2143 91.6072 96.0634 91.0742 95.9462 90.5132C95.617 88.9382 96.9589 87.6072 98.5679 87.6072C100.138 87.6072 101.35 88.8837 101.709 90.4127C101.752 90.5949 101.799 90.7703 101.85 90.9386C102.153 91.822 102.62 92.4908 103.251 92.9451C103.882 93.3993 104.689 93.6265 105.674 93.6265C106.658 93.6265 107.453 93.3993 108.059 92.9451C108.69 92.4908 109.157 91.822 109.459 90.9386C109.513 90.7784 109.562 90.6118 109.606 90.439C109.995 88.9106 111.192 87.6072 112.769 87.6072Z" fill="white"/>
<path d="M127.136 87.6072C128.729 87.6072 130.058 88.9254 129.735 90.4862C129.617 91.0571 129.464 91.5991 129.277 92.1122C128.823 93.4246 128.154 94.535 127.271 95.4436C126.387 96.3269 125.327 97.0084 124.091 97.4879C122.879 97.9422 121.504 98.1693 119.964 98.1693C118.526 98.1693 117.201 97.9422 115.989 97.4879C114.778 97.0084 113.73 96.3269 112.847 95.4436C111.964 94.535 111.27 93.4246 110.765 92.1122C110.58 91.6072 110.43 91.0742 110.312 90.5132C109.983 88.9382 111.325 87.6072 112.934 87.6072C114.505 87.6072 115.716 88.8837 116.075 90.4127C116.118 90.5949 116.165 90.7703 116.216 90.9386C116.519 91.822 116.986 92.4908 117.617 92.9451C118.248 93.3993 119.056 93.6265 120.04 93.6265C121.024 93.6265 121.819 93.3993 122.425 92.9451C123.056 92.4908 123.523 91.822 123.826 90.9386C123.879 90.7784 123.928 90.6118 123.972 90.439C124.361 88.9106 125.558 87.6072 127.136 87.6072Z" fill="white"/>
</svg>
